<svg xmlns:xlink="http://www.w3.org/1999/xlink" xmlns="http://www.w3.org/2000/svg" width="300.963" height="260.9"
     viewBox="0 0 300.963 260.9">
    <defs>
        <clipPath id="clip-path">
            <ellipse id="Ellipse_5" data-name="Ellipse 5" cx="11.91" cy="28.397" rx="11.91" ry="28.397"
                     transform="matrix(0.736, -0.677, 0.677, 0.736, 0, 16.123)" fill="none"/>
        </clipPath>
    </defs>
    <g id="money" transform="translate(-1983.37 -85.322)">
        <g id="Group_1709" data-name="Group 1709" transform="translate(1983.37 85.322)">
            <g id="Group_1667" data-name="Group 1667" transform="translate(32.376)">
                <g id="Group_1607" data-name="Group 1607" transform="translate(1.168 71.107)">
                    <g id="Group_1605" data-name="Group 1605" transform="translate(0.292 0.163)">
                        <path id="Path_577" data-name="Path 577"
                              d="M1290.3,1575.256a14.188,14.188,0,0,1-2.836-.289c-.134-.023-.276-.054-.419-.092l-150.595-35.433a14.836,14.836,0,0,1-8.51-5.582l-.094-.12a14.779,14.779,0,0,1-2.866-8.783V1395.045a13.376,13.376,0,0,1,2.257-7.452l.511.277a7.574,7.574,0,0,0-.087,6.543c1.147,2.267,3.637,3.949,7.011,4.735l158.809,36.446a13.992,13.992,0,0,1,10.835,13.673V1561.2A14.051,14.051,0,0,1,1290.3,1575.256Z"
                              transform="translate(-1124.982 -1387.592)" fill="#e67e22"/>
                    </g>
                    <g id="Group_1606" data-name="Group 1606">
                        <path id="Path_578" data-name="Path 578"
                              d="M1125.274,1386.525c-2.495,5.818.981,10.246,7.127,11.678.017.006.035.006.052.011l158.758,36.434a13.753,13.753,0,0,1,10.608,13.389v111.938a13.726,13.726,0,0,1-16.5,13.477q-.2-.035-.4-.088l-150.6-35.435a14.518,14.518,0,0,1-8.43-5.59h-.006a14.547,14.547,0,0,1-2.81-8.611V1393.815a13.07,13.07,0,0,1,2.208-7.291m-.486-.325a13.673,13.673,0,0,0-2.306,7.615v129.911a15.072,15.072,0,0,0,2.922,8.956l.175.239h.009a15.132,15.132,0,0,0,8.589,5.574l150.6,35.436c.132.035.284.068.437.094a14.311,14.311,0,0,0,17.187-14.052V1448.036a14.283,14.283,0,0,0-11.059-13.958l-158.736-36.429-.018-.006-.05-.009-.007,0c-3.288-.766-5.71-2.392-6.817-4.582a7.292,7.292,0,0,1,.095-6.3l-1.023-.555Z"
                              transform="translate(-1122.482 -1386.2)" fill="#66142e"/>
                    </g>
                </g>
                <g id="Group_1611" data-name="Group 1611" transform="translate(0.584 86.902)">
                    <g id="Group_1608" data-name="Group 1608" transform="translate(0)">
                        <path id="Path_579" data-name="Path 579"
                              d="M1121.618,1526.078a1.161,1.161,0,0,1-.579-.155,13.431,13.431,0,0,1-3.247-2.565,1.168,1.168,0,0,1,1.716-1.586,11.131,11.131,0,0,0,2.692,2.124,1.168,1.168,0,0,1-.582,2.182Z"
                              transform="translate(-1117.482 -1521.397)" fill="#fff"/>
                    </g>
                    <g id="Group_1609" data-name="Group 1609" transform="translate(7.981 4.802)">
                        <path id="Path_580" data-name="Path 580"
                              d="M1341.474,1720.783a1.168,1.168,0,0,1-.269-.031l-7.36-1.732a1.168,1.168,0,0,1,.535-2.275l7.36,1.732a1.168,1.168,0,0,1-.266,2.306Zm6.507-2.073a1.168,1.168,0,0,1-1.06-1.658,3.258,3.258,0,0,0,.292-1.378v-5.634a1.168,1.168,0,0,1,2.337,0v5.634a5.577,5.577,0,0,1-.508,2.358A1.168,1.168,0,0,1,1347.981,1718.71Zm-21.227-1.39a1.167,1.167,0,0,1-.269-.031l-7.36-1.732a1.169,1.169,0,0,1,.535-2.275l7.36,1.732a1.169,1.169,0,0,1-.266,2.306Zm-14.72-3.463a1.181,1.181,0,0,1-.268-.031l-7.36-1.732a1.168,1.168,0,0,1,.535-2.275l7.36,1.732a1.169,1.169,0,0,1-.267,2.306Zm-14.719-3.463a1.168,1.168,0,0,1-.269-.031l-7.36-1.732a1.169,1.169,0,0,1,.535-2.275l7.36,1.732a1.169,1.169,0,0,1-.267,2.306Zm-14.719-3.463a1.168,1.168,0,0,1-.269-.031l-7.36-1.732a1.169,1.169,0,0,1,.535-2.275l7.36,1.732a1.169,1.169,0,0,1-.266,2.306Zm65.787-3.283a1.168,1.168,0,0,1-1.168-1.168v-7.561a1.168,1.168,0,0,1,2.337,0v7.561A1.168,1.168,0,0,1,1348.382,1703.647Zm-80.506-.181a1.162,1.162,0,0,1-.268-.031l-7.36-1.732a1.169,1.169,0,0,1,.535-2.275l7.36,1.732a1.168,1.168,0,0,1-.267,2.306ZM1253.157,1700a1.178,1.178,0,0,1-.269-.031l-7.36-1.732a1.169,1.169,0,0,1,.535-2.275l7.36,1.732a1.168,1.168,0,0,1-.267,2.306Zm-14.719-3.463a1.183,1.183,0,0,1-.269-.031l-7.36-1.732a1.169,1.169,0,0,1,.535-2.275l7.36,1.732a1.169,1.169,0,0,1-.266,2.306Zm-14.719-3.463a1.183,1.183,0,0,1-.269-.031l-7.36-1.732a1.169,1.169,0,0,1,.535-2.275l7.36,1.732a1.169,1.169,0,0,1-.266,2.306ZM1209,1689.613a1.183,1.183,0,0,1-.269-.031l-7.36-1.732a1.168,1.168,0,0,1,.535-2.275l7.36,1.732a1.169,1.169,0,0,1-.266,2.306Zm139.384-1.087a1.168,1.168,0,0,1-1.168-1.168V1679.8a1.168,1.168,0,0,1,2.337,0v7.561A1.168,1.168,0,0,1,1348.382,1688.526Zm-154.1-2.376a1.144,1.144,0,0,1-.269-.031l-1.917-.451a35.681,35.681,0,0,1-5.533-1.449,1.168,1.168,0,1,1,.791-2.2,33.811,33.811,0,0,0,5.225,1.363l1.969.462a1.168,1.168,0,0,1-.267,2.305Zm154.1-12.746a1.168,1.168,0,0,1-1.168-1.168v-7.561a1.168,1.168,0,0,1,2.337,0v7.561A1.168,1.168,0,0,1,1348.382,1673.4Zm0-15.121a1.169,1.169,0,0,1-1.168-1.168v-7.56a1.168,1.168,0,0,1,2.337,0v7.56A1.169,1.169,0,0,1,1348.382,1658.283Zm0-15.122a1.168,1.168,0,0,1-1.168-1.168v-7.56a1.168,1.168,0,0,1,2.337,0v7.56A1.168,1.168,0,0,1,1348.382,1643.161Zm0-15.121a1.169,1.169,0,0,1-1.168-1.168v-7.561a1.168,1.168,0,0,1,2.337,0v7.561A1.169,1.169,0,0,1,1348.382,1628.041Zm0-15.122a1.168,1.168,0,0,1-1.168-1.168v-7.561a1.168,1.168,0,0,1,2.337,0v7.561A1.168,1.168,0,0,1,1348.382,1612.919Zm-4.562-12.57a1.151,1.151,0,0,1-.262-.03l-7.369-1.691a1.168,1.168,0,0,1,.523-2.278l7.369,1.691a1.168,1.168,0,0,1-.26,2.307Zm-14.738-3.383a1.152,1.152,0,0,1-.262-.03l-7.369-1.691a1.168,1.168,0,0,1,.522-2.278l7.369,1.691a1.168,1.168,0,0,1-.26,2.307Zm-14.738-3.382a1.139,1.139,0,0,1-.262-.03l-7.369-1.691a1.168,1.168,0,1,1,.523-2.277l7.369,1.691a1.168,1.168,0,0,1-.26,2.307Zm-14.739-3.382a1.177,1.177,0,0,1-.262-.03l-7.369-1.691a1.168,1.168,0,0,1,.522-2.278l7.369,1.692a1.168,1.168,0,0,1-.26,2.307Zm-14.738-3.383a1.138,1.138,0,0,1-.262-.03l-7.369-1.691a1.168,1.168,0,1,1,.522-2.277l7.369,1.691a1.168,1.168,0,0,1-.26,2.307Zm-14.739-3.383a1.161,1.161,0,0,1-.262-.03l-7.369-1.691a1.168,1.168,0,0,1,.523-2.277l7.369,1.691a1.168,1.168,0,0,1-.26,2.307Zm-14.738-3.382a1.156,1.156,0,0,1-.263-.03l-7.369-1.691a1.168,1.168,0,0,1,.523-2.277l7.369,1.691a1.168,1.168,0,0,1-.26,2.307Zm-14.739-3.382a1.152,1.152,0,0,1-.262-.03l-7.369-1.691a1.168,1.168,0,1,1,.523-2.277l7.369,1.691a1.168,1.168,0,0,1-.26,2.307Zm-14.738-3.382a1.141,1.141,0,0,1-.262-.03l-7.369-1.691a1.168,1.168,0,1,1,.522-2.277l7.369,1.691a1.168,1.168,0,0,1-.26,2.307Zm-14.738-3.382a1.192,1.192,0,0,1-.262-.03l-7.369-1.691a1.168,1.168,0,0,1,.523-2.277l7.369,1.691a1.168,1.168,0,0,1-.26,2.307Zm-14.738-3.383a1.2,1.2,0,0,1-.262-.03l-7.369-1.692a1.168,1.168,0,1,1,.522-2.277l7.369,1.691a1.168,1.168,0,0,1-.26,2.307Z"
                              transform="translate(-1185.787 -1562.497)" fill="#fff"/>
                    </g>
                    <g id="Group_1610" data-name="Group 1610" transform="translate(0 116.831)">
                        <path id="Path_581" data-name="Path 581"
                              d="M1120.328,2527.1a1.168,1.168,0,0,1-.906-.43,9.619,9.619,0,0,1-1.909-3.832,1.169,1.169,0,0,1,2.271-.551,7.293,7.293,0,0,0,1.45,2.907,1.168,1.168,0,0,1-.905,1.907Z"
                              transform="translate(-1117.479 -2521.39)" fill="#fff"/>
                    </g>
                </g>
                <g id="Group_1614" data-name="Group 1614" transform="translate(1.752 71.432)" opacity="0.55">
                    <g id="Group_1612" data-name="Group 1612">
                        <path id="Path_582" data-name="Path 582"
                              d="M1129.14,1394.552a13.061,13.061,0,0,0-1.659,6.391v-4.673a13.07,13.07,0,0,1,2.208-7.291A8.234,8.234,0,0,0,1129.14,1394.552Z"
                              transform="translate(-1127.481 -1388.979)" fill="#fff"/>
                    </g>
                    <g id="Group_1613" data-name="Group 1613">
                        <path id="Path_583" data-name="Path 583"
                              d="M1129.14,1394.552a13.061,13.061,0,0,0-1.659,6.391v-4.673a13.07,13.07,0,0,1,2.208-7.291A8.234,8.234,0,0,0,1129.14,1394.552Z"
                              transform="translate(-1127.481 -1388.979)" fill="none" stroke="#66142e"
                              stroke-miterlimit="10" stroke-width="1"/>
                    </g>
                </g>
                <g id="Group_1615" data-name="Group 1615" transform="translate(3.148 77.343)" opacity="0.55">
                    <path id="Path_584" data-name="Path 584"
                          d="M1316.782,1495.18v4.673a13.753,13.753,0,0,0-10.609-13.389l-158.758-36.434c-.017-.006-.035-.006-.052-.012-5.7-1.326-9.107-5.234-7.571-10.439.958,2.827,3.745,4.878,7.571,5.766.018.006.035.006.052.012l158.758,36.434A13.753,13.753,0,0,1,1316.782,1495.18Z"
                          transform="translate(-1139.424 -1439.579)" fill="#fff"/>
                </g>
                <g id="Group_1618" data-name="Group 1618" transform="translate(3.411 76.105)" opacity="0.55">
                    <g id="Group_1616" data-name="Group 1616">
                        <path id="Path_585" data-name="Path 585"
                              d="M1142.23,1428.979a10.61,10.61,0,0,0-.444,1.239,3.278,3.278,0,0,1-.105-.339C1141.85,1429.575,1142.031,1429.271,1142.23,1428.979Z"
                              transform="translate(-1141.681 -1428.979)" fill="#fff"/>
                    </g>
                    <g id="Group_1617" data-name="Group 1617">
                        <path id="Path_586" data-name="Path 586"
                              d="M1142.23,1428.979a10.61,10.61,0,0,0-.444,1.239,3.278,3.278,0,0,1-.105-.339C1141.85,1429.575,1142.031,1429.271,1142.23,1428.979Z"
                              transform="translate(-1141.681 -1428.979)" fill="none" stroke="#66142e"
                              stroke-miterlimit="10" stroke-width="1"/>
                    </g>
                </g>
                <g id="Group_1619" data-name="Group 1619" transform="translate(0 69.679)">
                    <path id="Path_587" data-name="Path 587"
                          d="M1279.259,1564.692a15.532,15.532,0,0,1-3.125-.318c-.132-.021-.315-.062-.5-.11l-150.558-35.424a16.272,16.272,0,0,1-12.6-15.906V1383.022a14.836,14.836,0,0,1,2.5-8.264,1.752,1.752,0,0,1,3.068,1.664,6.091,6.091,0,0,0-.126,5.309c.948,1.874,3.091,3.284,6.034,3.97l.053.011,158.758,36.434a15.449,15.449,0,0,1,11.969,15.1V1549.18a15.516,15.516,0,0,1-15.482,15.511Zm-163.272-179.6v127.843a12.781,12.781,0,0,0,9.894,12.494l150.6,35.436c.13.033.217.052.3.067a12,12,0,0,0,14.449-11.75V1437.243a11.954,11.954,0,0,0-9.257-11.683l-158.749-36.432-.058-.013h0A13.2,13.2,0,0,1,1115.987,1385.09Z"
                          transform="translate(-1112.482 -1373.979)" fill="#66142e"/>
                </g>
                <g id="Group_1623" data-name="Group 1623" transform="translate(11.393 73.727)">
                    <g id="Group_1620" data-name="Group 1620" transform="translate(2.678 0.292)">
                        <path id="Path_588" data-name="Path 588"
                              d="M1409.571,1460.944a13.466,13.466,0,0,0-10.378-13.1l-166.281-36.713h176.822a14.058,14.058,0,0,1,14.049,14.05v112.69a14.045,14.045,0,0,1-9.008,13.107,14.1,14.1,0,0,1-4.909.931l-.3,0Z"
                              transform="translate(-1232.912 -1411.127)" fill="#e67e22"/>
                    </g>
                    <g id="Group_1622" data-name="Group 1622">
                        <g id="Group_1621" data-name="Group 1621">
                            <path id="Path_589" data-name="Path 589"
                                  d="M1389.494,1409.211a13.767,13.767,0,0,1,13.757,13.757v112.69a13.753,13.753,0,0,1-8.821,12.834,13.822,13.822,0,0,1-4.808.911v-90.668a13.757,13.757,0,0,0-10.6-13.389l-163.67-36.136h174.144m0-.584h-179.5l5.229,1.155,163.67,36.136a13.171,13.171,0,0,1,10.144,12.818v91.258l.59-.007a14.325,14.325,0,0,0,13.427-9.67,14.232,14.232,0,0,0,.779-4.659v-112.69a14.35,14.35,0,0,0-14.341-14.341Z"
                                  transform="translate(-1209.994 -1408.627)" fill="#66142e"/>
                        </g>
                    </g>
                </g>
                <g id="Group_1624" data-name="Group 1624" transform="translate(186.885 79.481)" opacity="0.3">
                    <path id="Path_590" data-name="Path 590"
                          d="M2729.845,1466.466v112.691a13.752,13.752,0,0,1-8.821,12.834,13.817,13.817,0,0,1-4.808.911v-90.668a13.748,13.748,0,0,0-4.136-9.832v-24.669l3.114-1.753c7.43-.21,13.143-1.624,11.636-8.1A13.646,13.646,0,0,1,2729.845,1466.466Z"
                          transform="translate(-2712.081 -1457.879)" fill="#66142e"/>
                </g>
                <g id="Group_1625" data-name="Group 1625" transform="translate(14.995 72.559)">
                    <path id="Path_591" data-name="Path 591"
                          d="M1416.856,1542.325a1.753,1.753,0,0,1-1.753-1.753V1449.9a11.956,11.956,0,0,0-9.252-11.683l-163.646-36.131a1.753,1.753,0,0,1,.378-3.464h174.144a15.527,15.527,0,0,1,15.51,15.51v112.69a15.507,15.507,0,0,1-9.946,14.471,15.569,15.569,0,0,1-5.417,1.028ZM1258.65,1402.132l147.982,32.673a15.453,15.453,0,0,1,11.978,15.1v88.768a12,12,0,0,0,10.123-11.846v-112.69a12.018,12.018,0,0,0-12-12Z"
                          transform="translate(-1240.831 -1398.627)" fill="#66142e"/>
                </g>
                <g id="Group_1626" data-name="Group 1626" transform="translate(19.666 74.956)" opacity="0.3">
                    <path id="Path_592" data-name="Path 592" d="M1280.808,1419.143h34.632l1.425,7.078Z"
                          transform="translate(-1280.808 -1419.143)" fill="#66142e"/>
                </g>
                <g id="Group_1627" data-name="Group 1627" transform="translate(76.858 74.121)" opacity="0.3">
                    <path id="Path_593" data-name="Path 593"
                          d="M1770.331,1425.459h111.242c13.144.257,15.714-4.241,12.519-9.241-4.1-5.278-14.237-4.853-26.1-2.79Z"
                          transform="translate(-1770.331 -1411.996)" fill="#66142e"/>
                </g>
                <g id="Group_1631" data-name="Group 1631" transform="translate(2.563 64.994)">
                    <g id="Group_1628" data-name="Group 1628" transform="translate(0.293 0.292)">
                        <path id="Path_594" data-name="Path 594"
                              d="M1304.752,1530.526a30.417,30.417,0,0,1-6.74-.79l.124-.571a13.434,13.434,0,0,0,16.152-13.19V1404.038a13.459,13.459,0,0,0-10.383-13.1l-158.834-36.452c-3.521-.819-6.149-2.608-7.375-5.033a8.136,8.136,0,0,1,.071-7.037,13.421,13.421,0,0,1,11.2-6.03h185.15a14.065,14.065,0,0,1,14.049,14.049v112.691c.2,14.805-5.974,18.975-18.2,21.851l-.172-.557a13.459,13.459,0,0,0,8.633-12.562v-112.69a13.217,13.217,0,0,0-.485-3.578l-.011-.039v-.012a13.491,13.491,0,0,0-12.969-9.837H1153.5l161.055,35.559a14.069,14.069,0,0,1,9.823,8.454,13.852,13.852,0,0,1,1.008,5.22v111.394c.485,7.522-1.411,13.8-5.483,18.148C1316.189,1528.433,1310.95,1530.526,1304.752,1530.526Z"
                              transform="translate(-1136.929 -1336.381)" fill="#d3623b"/>
                    </g>
                    <g id="Group_1630" data-name="Group 1630">
                        <g id="Group_1629" data-name="Group 1629">
                            <path id="Path_595" data-name="Path 595"
                                  d="M1331.906,1334.465a13.758,13.758,0,0,1,13.757,13.757v112.691c.2,14.873-6.28,18.816-17.974,21.567a13.754,13.754,0,0,0,8.821-12.834v-112.69a13.491,13.491,0,0,0-.5-3.657v-.011a13.763,13.763,0,0,0-13.261-10.089H1148.608l163.67,36.136a13.756,13.756,0,0,1,9.615,8.278,13.606,13.606,0,0,1,.988,5.111v111.394c.986,15.308-8,23.909-20.342,23.909a30.084,30.084,0,0,1-6.676-.782,13.728,13.728,0,0,0,16.5-13.477V1401.83a13.752,13.752,0,0,0-10.608-13.389L1143,1352.007c-.018-.006-.035-.006-.052-.011-6.145-1.431-9.621-5.859-7.127-11.677a13.124,13.124,0,0,1,10.936-5.853h185.15m0-.584h-185.15a13.7,13.7,0,0,0-11.422,6.113l-.03.044-.021.05a8.418,8.418,0,0,0-.063,7.284c1.264,2.5,3.951,4.339,7.569,5.187l.018.006.053.01.009,0,158.758,36.434a13.167,13.167,0,0,1,10.155,12.82v111.937a13.143,13.143,0,0,1-15.8,12.9l-.247,1.142a30.73,30.73,0,0,0,6.805.8c6.281,0,11.594-2.125,15.364-6.146,4.126-4.4,6.049-10.75,5.563-18.366V1392.723a14.147,14.147,0,0,0-1.03-5.33,14.361,14.361,0,0,0-10.023-8.627l-158.449-34.984h168.789a13.2,13.2,0,0,1,12.676,9.585h0l.022.089a12.924,12.924,0,0,1,.475,3.5v112.69a13.171,13.171,0,0,1-8.446,12.289l.343,1.114c5.1-1.2,10.286-2.8,13.735-6.4,3.3-3.44,4.787-8.442,4.69-15.741V1348.222a14.357,14.357,0,0,0-14.341-14.341Z"
                                  transform="translate(-1134.424 -1333.881)" fill="#66142e"/>
                        </g>
                    </g>
                </g>
                <g id="Group_1634" data-name="Group 1634" transform="translate(164.003 244.881)" opacity="0.55">
                    <g id="Group_1632" data-name="Group 1632">
                        <path id="Path_596" data-name="Path 596"
                              d="M2532.733,2873.579v3.651a13.641,13.641,0,0,1-4.3,9.983,26.993,26.993,0,0,1-12.2-.158A13.755,13.755,0,0,0,2532.733,2873.579Z"
                              transform="translate(-2516.231 -2873.579)" fill="#fff"/>
                    </g>
                    <g id="Group_1633" data-name="Group 1633">
                        <path id="Path_597" data-name="Path 597"
                              d="M2532.733,2873.579v3.651a13.641,13.641,0,0,1-4.3,9.983,26.993,26.993,0,0,1-12.2-.158A13.755,13.755,0,0,0,2532.733,2873.579Z"
                              transform="translate(-2516.231 -2873.579)" fill="none" stroke="#66142e"
                              stroke-miterlimit="10" stroke-width="1"/>
                    </g>
                </g>
                <g id="Group_1637" data-name="Group 1637" transform="translate(191.021 235.23)" opacity="0.55">
                    <g id="Group_1635" data-name="Group 1635">
                        <path id="Path_598" data-name="Path 598"
                              d="M2747.481,2790.979a32.863,32.863,0,0,1,.023,4.09c-.005-.146-.012-.292-.023-.438Z"
                              transform="translate(-2747.481 -2790.979)" fill="#fff"/>
                    </g>
                    <g id="Group_1636" data-name="Group 1636">
                        <path id="Path_599" data-name="Path 599"
                              d="M2747.481,2790.979a32.863,32.863,0,0,1,.023,4.09c-.005-.146-.012-.292-.023-.438Z"
                              transform="translate(-2747.481 -2790.979)" fill="none" stroke="#66142e"
                              stroke-miterlimit="10" stroke-width="1"/>
                    </g>
                </g>
                <g id="Group_1640" data-name="Group 1640" transform="translate(195.828 200.759)" opacity="0.55">
                    <g id="Group_1638" data-name="Group 1638">
                        <path id="Path_600" data-name="Path 600"
                              d="M2796.7,2500.4a13.644,13.644,0,0,0,.748-4.469v3.651a13.7,13.7,0,0,1-2,7.139,48.255,48.255,0,0,1-6.817,2.044A13.766,13.766,0,0,0,2796.7,2500.4Z"
                              transform="translate(-2788.632 -2495.929)" fill="#fff"/>
                    </g>
                    <g id="Group_1639" data-name="Group 1639">
                        <path id="Path_601" data-name="Path 601"
                              d="M2796.7,2500.4a13.644,13.644,0,0,0,.748-4.469v3.651a13.7,13.7,0,0,1-2,7.139,48.255,48.255,0,0,1-6.817,2.044A13.766,13.766,0,0,0,2796.7,2500.4Z"
                              transform="translate(-2788.632 -2495.929)" fill="none" stroke="#66142e"
                              stroke-miterlimit="10" stroke-width="1"/>
                    </g>
                </g>
                <g id="Group_1641" data-name="Group 1641" transform="translate(3.145 65.578)" opacity="0.55">
                    <path id="Path_602" data-name="Path 602"
                          d="M1350.059,1352.636v3.651a13.758,13.758,0,0,0-13.757-13.757h-185.15a13.124,13.124,0,0,0-10.935,5.853,10.669,10.669,0,0,0-.59,1.788,8.3,8.3,0,0,1,.59-5.439,13.124,13.124,0,0,1,10.935-5.853H1336.3A13.758,13.758,0,0,1,1350.059,1352.636Z"
                          transform="translate(-1139.401 -1338.879)" fill="#fff"/>
                </g>
                <g id="Group_1642" data-name="Group 1642" transform="translate(164.003 116.817)" opacity="0.3">
                    <path id="Path_603" data-name="Path 603"
                          d="M2543.249,1895.861c1.156,17.957-11.4,26.684-27.018,23.127a13.755,13.755,0,0,0,16.5-13.477V1793.574a13.718,13.718,0,0,0-1.454-6.157c-1.274-8.827,5.315-12.548,10.982-8.062a13.614,13.614,0,0,1,.987,5.112Z"
                          transform="translate(-2516.231 -1777.447)" fill="#66142e"/>
                </g>
                <g id="Group_1643" data-name="Group 1643" transform="translate(1.392 63.826)">
                    <path id="Path_604" data-name="Path 604"
                          d="M1293.732,1520.955a32.04,32.04,0,0,1-7.11-.834,1.752,1.752,0,0,1,.741-3.425,12,12,0,0,0,14.4-11.76V1393a11.954,11.954,0,0,0-9.257-11.683l-158.749-36.432-.058-.013h0c-3.973-.925-6.947-2.986-8.372-5.8a9.546,9.546,0,0,1,.032-8.272,1.742,1.742,0,0,1,.153-.282,14.872,14.872,0,0,1,12.393-6.633h185.15a15.527,15.527,0,0,1,15.509,15.509v112.691c.208,15.609-6.928,20.357-19.326,23.273a1.752,1.752,0,0,1-1.029-3.342,12,12,0,0,0,7.7-11.2v-112.69a12.018,12.018,0,0,0-12-12H1155.821l147.982,32.672a15.453,15.453,0,0,1,11.977,15.1V1495.23c.553,8.788-2.094,16.139-7.455,20.706A22.07,22.07,0,0,1,1293.732,1520.955Zm-159.192-179.488L1293.3,1377.9a15.449,15.449,0,0,1,11.969,15.1v111.937a15.443,15.443,0,0,1-5.214,11.6,16.919,16.919,0,0,0,6-3.266c4.575-3.9,6.729-10.077,6.227-17.87,0-.037,0-.074,0-.112V1383.892a11.955,11.955,0,0,0-9.252-11.683l-163.647-36.131a1.753,1.753,0,0,1,.377-3.464H1313.9a15.527,15.527,0,0,1,15.509,15.51v112.69a15.388,15.388,0,0,1-.844,5.042,15.546,15.546,0,0,1-1.522,3.194c5.52-2.843,8.142-7.468,8.016-16.945V1339.39a12.018,12.018,0,0,0-12-12H1137.9a11.372,11.372,0,0,0-9.387,4.939,6.019,6.019,0,0,0-.064,5.16c.948,1.874,3.091,3.284,6.035,3.97l.052.011Z"
                          transform="translate(-1124.4 -1323.881)" fill="#66142e"/>
                </g>
                <g id="Group_1644" data-name="Group 1644" transform="translate(75.106 76.589)">
                    <path id="Path_605" data-name="Path 605"
                          d="M1869.372,1445.881q-.53,0-1.08-.011H1757.084a1.752,1.752,0,1,1,0-3.5h111.242c9.056.168,11.232-1.937,11.745-2.852.64-1.141-.029-2.638-.7-3.693a1.753,1.753,0,1,1,2.954-1.887c2.156,3.373,1.629,5.828.808,7.293C1881.4,1444.317,1876.771,1445.881,1869.372,1445.881Z"
                          transform="translate(-1755.331 -1433.123)" fill="#66142e"/>
                </g>
                <g id="Group_1655" data-name="Group 1655" transform="translate(42.195 4.049)">
                    <g id="Group_1647" data-name="Group 1647" transform="translate(1.461 1.461)">
                        <g id="Group_1645" data-name="Group 1645" transform="translate(0.292 0.292)">
                            <path id="Path_606" data-name="Path 606"
                                  d="M1594.39,909.02l-62.7.444-.1-.023-14.107-3.114-7.641-1.688-9.4-2.074-1.448-6.817-1.858-8.733-8.458-39.723a1.515,1.515,0,0,1,1.162-1.8l44.432-9.458,6.753-1.437,18.775-4,8.651-1.84h.006l6.981-1.49a1.515,1.515,0,0,1,1.8,1.162l.543,2.553.876,4.118,11.052,51.909,1.857,8.733Z"
                                  transform="translate(-1488.64 -827.238)" fill="#1ebc61"/>
                        </g>
                        <g id="Group_1646" data-name="Group 1646">
                            <path id="Path_607" data-name="Path 607"
                                  d="M1529.445,907.552l-.134-.031-31.327-6.915-3.345-15.734-8.459-39.723a1.809,1.809,0,0,1,1.387-2.146l78.671-16.737,6.926-1.483a1.811,1.811,0,0,1,2.146,1.387l17.232,80.936-.359,0Zm-30.967-7.436,31.033,6.852,62.311-.442-17.082-80.234a1.222,1.222,0,0,0-1.452-.938l-85.6,18.22a1.224,1.224,0,0,0-.938,1.452Z"
                                  transform="translate(-1486.14 -824.743)" fill="#66142e"/>
                        </g>
                    </g>
                    <g id="Group_1648" data-name="Group 1648" transform="translate(1.753 1.753)" opacity="0.55">
                        <path id="Path_608" data-name="Path 608"
                              d="M1577.549,829.907l-5.229,1.116h-.006l-27.421,5.836-51.184,10.895a1.518,1.518,0,0,0-1.168,1.8l8.464,39.723,1.858,8.733,1.127,5.339-3.552-.783-1.448-6.817-1.858-8.733-8.458-39.723a1.515,1.515,0,0,1,1.162-1.8l51.185-10.895,27.426-5.836h.006l6.981-1.49a1.515,1.515,0,0,1,1.8,1.162Z"
                              transform="translate(-1488.64 -827.238)" fill="#fff"/>
                    </g>
                    <g id="Group_1651" data-name="Group 1651" transform="translate(13.182 13.182)">
                        <g id="Group_1649" data-name="Group 1649" transform="translate(0.347 0.347)">
                            <path id="Path_609" data-name="Path 609"
                                  d="M1674.444,998.035l-53.842.421-21.748-4.8-1.893-8.891-1.858-8.733-5.672-26.649a7.987,7.987,0,0,0,6.145-9.475l32.2-6.852,23.594-5.024a7.987,7.987,0,0,0,9.475,6.145l8.909,41.855,1.858,8.733Z"
                                  transform="translate(-1589.431 -928.029)" fill="#4eec91"/>
                        </g>
                        <g id="Group_1650" data-name="Group 1650">
                            <path id="Path_610" data-name="Path 610"
                                  d="M1617.951,996.127l-.032-.007-21.931-4.842-3.79-17.808-5.733-26.935.286-.061a7.7,7.7,0,0,0,5.92-9.129l-.06-.285.286-.061,56.084-11.937.061.285a7.706,7.706,0,0,0,9.129,5.921l.286-.06.061.285,13.668,64.211Zm-21.471-5.338,21.533,4.754,53.451-.418L1658,931.9a8.285,8.285,0,0,1-9.469-6.141L1593.3,937.51a8.291,8.291,0,0,1-6.141,9.47Z"
                                  transform="translate(-1586.464 -925.062)" fill="#66142e"/>
                        </g>
                    </g>
                    <g id="Group_1652" data-name="Group 1652" transform="translate(30.592 5.117)" opacity="0.3">
                        <path id="Path_611" data-name="Path 611"
                              d="M1812.392,934.447l-62.7.444-.1-.023-14.107-3.114,16.789-70.292,6.753-1.437,18.775-4,18.857,4.5,11.052,51.909,1.858,8.733Z"
                              transform="translate(-1735.481 -856.029)" fill="#66142e"/>
                    </g>
                    <g id="Group_1653" data-name="Group 1653">
                        <path id="Path_612" data-name="Path 612"
                              d="M1581.138,897.521a1.753,1.753,0,0,1-1.712-1.388l-17.107-80.349-6.75,1.44-.066.013L1477.187,833.9l12.119,56.924a1.753,1.753,0,1,1-3.428.73l-12.168-57.154a3.271,3.271,0,0,1,2.509-3.878l78.613-16.731.064-.012,6.922-1.477a3.266,3.266,0,0,1,3.878,2.51l17.157,80.587a1.753,1.753,0,0,1-1.716,2.118Z"
                              transform="translate(-1473.638 -812.234)" fill="#66142e"/>
                    </g>
                    <g id="Group_1654" data-name="Group 1654" transform="translate(12.068 12.069)">
                        <path id="Path_613" data-name="Path 613"
                              d="M1663.4,988.464a1.462,1.462,0,0,1-1.427-1.157l-13.313-62.543a9.468,9.468,0,0,1-9.341-6.058l-53.163,11.314a9.471,9.471,0,0,1-6.058,9.342l9.545,44.836a1.46,1.46,0,1,1-2.857.609l-9.826-46.155a1.461,1.461,0,0,1,1.125-1.732,6.535,6.535,0,0,0,5.021-7.744,1.46,1.46,0,0,1,1.125-1.732l55.8-11.875a1.461,1.461,0,0,1,1.732,1.124,6.533,6.533,0,0,0,7.743,5.021,1.461,1.461,0,0,1,1.732,1.124l13.593,63.861a1.461,1.461,0,0,1-1.124,1.733A1.486,1.486,0,0,1,1663.4,988.464Z"
                              transform="translate(-1576.93 -915.537)" fill="#66142e"/>
                    </g>
                </g>
                <g id="Group_1656" data-name="Group 1656" transform="translate(78.552 1.753)">
                    <path id="Path_614" data-name="Path 614"
                          d="M1893.123,814.781l-9.1,38.093-6.1,25.534h-93.092l20.224-84.668a1.518,1.518,0,0,1,1.828-1.122L1892,812.952A1.518,1.518,0,0,1,1893.123,814.781Z"
                          transform="translate(-1784.831 -792.577)" fill="#1ebc61"/>
                </g>
                <g id="Group_1657" data-name="Group 1657" transform="translate(78.552 1.753)" opacity="0.55">
                    <path id="Path_615" data-name="Path 615"
                          d="M1893.123,814.781l-.426,1.782-83.284-19.9a1.518,1.518,0,0,0-1.829,1.122l-19.254,80.62h-3.5l20.224-84.668a1.518,1.518,0,0,1,1.828-1.122L1892,812.952A1.518,1.518,0,0,1,1893.123,814.781Z"
                          transform="translate(-1784.831 -792.577)" fill="#fff"/>
                </g>
                <g id="Group_1658" data-name="Group 1658" transform="translate(76.799)">
                    <path id="Path_616" data-name="Path 616"
                          d="M1864.675,866.912h-93.092a1.752,1.752,0,0,1-1.7-2.16l20.224-84.669a3.273,3.273,0,0,1,3.935-2.42L1879.161,798a3.275,3.275,0,0,1,2.42,3.936v.005l-15.2,63.627A1.752,1.752,0,0,1,1864.675,866.912Zm-90.872-3.5h89.489l14.823-62.054-84.659-20.225Zm106.072-61.874h0Z"
                          transform="translate(-1769.83 -777.576)" fill="#66142e"/>
                </g>
                <g id="Group_1659" data-name="Group 1659" transform="translate(195.828 73.95)" opacity="0.3">
                    <path id="Path_617" data-name="Path 617"
                          d="M2806.606,1417.423v111.189c.2,14.873-6.28,18.816-17.974,21.567a13.753,13.753,0,0,0,8.82-12.834v-112.69a13.48,13.48,0,0,0-.5-3.657v-.012C2797.452,1411.44,2803.82,1404.945,2806.606,1417.423Z"
                          transform="translate(-2788.632 -1410.536)" fill="#66142e"/>
                </g>
                <g id="Group_1660" data-name="Group 1660" transform="translate(87.56 13.857)">
                    <path id="Path_618" data-name="Path 618"
                          d="M1949.152,919.055,1937,969.906h-75.07l16.2-67.815a7.985,7.985,0,0,0,9.621-5.912l55.49,13.255A7.987,7.987,0,0,0,1949.152,919.055Z"
                          transform="translate(-1861.931 -896.179)" fill="#4eec91"/>
                </g>
                <g id="Group_1661" data-name="Group 1661" transform="translate(107.637 60.23)">
                    <path id="Path_619" data-name="Path 619"
                          d="M2058.279,1293.469a20.624,20.624,0,0,0-23.37,26.984h39a20.621,20.621,0,0,0-15.63-26.984Z"
                          transform="translate(-2033.778 -1293.099)" fill="#1ebc61"/>
                </g>
                <g id="Group_1662" data-name="Group 1662" transform="translate(114.287 71.746)">
                    <path id="Path_620" data-name="Path 620"
                          d="M2099.117,1407.3c-2.684-.513-4.767-2.524-5.159-5.977l-3.259-.623.793-4.152,2.749.525a13.835,13.835,0,0,1,2.365-5.4l3.788,1.736a12.54,12.54,0,0,0-2.343,5.083c-.422,2.212.272,3.551,1.66,3.816,1.324.253,2.273-.613,3.679-3,1.905-3.3,4.3-5.231,7.4-4.64,2.927.559,4.92,2.985,5.081,6.534l3.268.624-.792,4.152-3.04-.581a12.446,12.446,0,0,1-1.757,3.769l-3.682-1.813a10.272,10.272,0,0,0,1.86-4.258c.4-2.085-.353-3.276-1.461-3.488-1.356-.259-2.184.828-3.751,3.374C2104.411,1406.481,2102.114,1407.874,2099.117,1407.3Z"
                          transform="translate(-2090.699 -1391.672)" fill="#4eec91"/>
                </g>
                <g id="Group_1663" data-name="Group 1663" transform="translate(130.431 32.909)">
                    <circle id="Ellipse_3" data-name="Ellipse 3" cx="5.874" cy="5.874" r="5.874" fill="#1ebc61"/>
                </g>
                <g id="Group_1664" data-name="Group 1664" transform="translate(136.115 50.457)" opacity="0.3">
                    <path id="Path_621" data-name="Path 621"
                          d="M2324.416,1220.783l-6.1,25.534h-38.192a25.622,25.622,0,0,1,44.291-25.534Z"
                          transform="translate(-2277.531 -1209.45)" fill="#66142e"/>
                </g>
                <g id="Group_1665" data-name="Group 1665" transform="translate(86.099 12.396)">
                    <path id="Path_622" data-name="Path 622"
                          d="M1925.962,960.328h-75.071a1.461,1.461,0,0,1-1.42-1.8l16.2-67.816a1.459,1.459,0,0,1,1.759-1.081,6.537,6.537,0,0,0,7.862-4.83,1.461,1.461,0,0,1,1.76-1.082l55.489,13.254a1.46,1.46,0,0,1,1.081,1.759,6.532,6.532,0,0,0,4.83,7.862,1.461,1.461,0,0,1,1.082,1.76l-12.15,50.852A1.46,1.46,0,0,1,1925.962,960.328Zm-73.22-2.921h72.068l11.57-48.419a9.469,9.469,0,0,1-5.828-9.486l-52.868-12.628a9.467,9.467,0,0,1-9.485,5.827Z"
                          transform="translate(-1849.431 -883.68)" fill="#66142e"/>
                </g>
                <g id="Group_1666" data-name="Group 1666" transform="translate(12.18 141.858)" opacity="0.3">
                    <path id="Path_623" data-name="Path 623"
                          d="M1380.384,1991.779V2094.8a9.08,9.08,0,0,1-9.049,9.09,8.913,8.913,0,0,1-1.84-.193l-.14-.023-150.737-35.47a9.609,9.609,0,0,1-1.887-.655C1281.322,2069.741,1345.761,2043.454,1380.384,1991.779Z"
                          transform="translate(-1216.731 -1991.779)" fill="#66142e"/>
                </g>
            </g>
            <g id="Group_1682" data-name="Group 1682" transform="translate(175.233 44.506)">
                <g id="Group_1670" data-name="Group 1670" transform="translate(1.752 1.75)">
                    <g id="Group_1668" data-name="Group 1668">
                        <path id="Path_624" data-name="Path 624"
                              d="M2404.614,1206.9a27.5,27.5,0,0,1-50.3,8.508,27.494,27.494,0,0,1-3.556-19.667c.041-.207.081-.409.125-.614a27.5,27.5,0,0,1,49.52-9.721,28.246,28.246,0,0,1,2.225,3.87,27.442,27.442,0,0,1,1.989,17.623Z"
                              transform="translate(-2350.238 -1173.495)" fill="#f7c714"/>
                    </g>
                    <g id="Group_1669" data-name="Group 1669">
                        <path id="Path_625" data-name="Path 625"
                              d="M2404.614,1206.9a27.5,27.5,0,0,1-50.3,8.508,27.494,27.494,0,0,1-3.556-19.667c.041-.207.081-.409.125-.614a27.5,27.5,0,0,1,49.52-9.721,28.246,28.246,0,0,1,2.225,3.87,27.442,27.442,0,0,1,1.989,17.623Z"
                              transform="translate(-2350.238 -1173.495)" fill="none" stroke="#66142e"
                              stroke-miterlimit="10" stroke-width="1"/>
                    </g>
                </g>
                <g id="Group_1671" data-name="Group 1671" transform="translate(2.03 1.75)" opacity="0.55">
                    <path id="Path_626" data-name="Path 626"
                          d="M2406.712,1206.9c-.147.672-.319,1.334-.511,1.983a27.506,27.506,0,0,0-53.588-11.74c.1-.67.218-1.343.365-2.016a27.5,27.5,0,1,1,53.734,11.772Z"
                          transform="translate(-2352.613 -1173.495)" fill="#fff"/>
                </g>
                <g id="Group_1672" data-name="Group 1672" transform="translate(1.752 19.652)">
                    <path id="Path_627" data-name="Path 627"
                          d="M2404.613,1342.221a27.5,27.5,0,1,1-52.64-15.5,27.507,27.507,0,0,0,53.2,11.656A27.606,27.606,0,0,1,2404.613,1342.221Z"
                          transform="translate(-2350.236 -1326.722)" fill="#f89e1d"/>
                </g>
                <g id="Group_1675" data-name="Group 1675" transform="translate(10.081 10.082)">
                    <g id="Group_1673" data-name="Group 1673">
                        <path id="Path_628" data-name="Path 628"
                              d="M2436.6,1282.724a19.179,19.179,0,1,1,22.839-14.631A19.2,19.2,0,0,1,2436.6,1282.724Z"
                              transform="translate(-2421.528 -1244.808)" fill="#f9dd6a"/>
                    </g>
                    <g id="Group_1674" data-name="Group 1674">
                        <path id="Path_629" data-name="Path 629"
                              d="M2436.6,1282.724a19.179,19.179,0,1,1,22.839-14.631A19.2,19.2,0,0,1,2436.6,1282.724Z"
                              transform="translate(-2421.528 -1244.808)" fill="none" stroke="#66142e"
                              stroke-miterlimit="10" stroke-width="1"/>
                    </g>
                </g>
                <g id="Group_1676" data-name="Group 1676" transform="translate(10.26 10.081)" opacity="0.55">
                    <path id="Path_630" data-name="Path 630"
                          d="M2460.8,1268.085c-.111.5-.242,1-.388,1.485a19.177,19.177,0,0,0-37.346-8.182c.069-.5.158-1.006.269-1.511a19.178,19.178,0,1,1,37.466,8.209Z"
                          transform="translate(-2423.062 -1244.797)" fill="#fff"/>
                </g>
                <g id="Group_1677" data-name="Group 1677" transform="translate(20.608 16.274)">
                    <path id="Path_631" data-name="Path 631"
                          d="M2526.074,1316.368a5.844,5.844,0,0,1-5.629,4.6l-.653,2.984-3.8-.833.551-2.517a12.73,12.73,0,0,1-4.913-2.31l1.692-3.443a11.558,11.558,0,0,0,4.619,2.281c2.025.444,3.275-.162,3.553-1.433.265-1.211-.508-2.108-2.666-3.46-2.99-1.835-4.707-4.091-4.086-6.925.587-2.68,2.869-4.454,6.139-4.514l.655-2.992,3.8.833-.61,2.783a11.454,11.454,0,0,1,3.425,1.71l-1.76,3.343a9.469,9.469,0,0,0-3.873-1.818c-1.91-.418-3.023.244-3.246,1.258-.272,1.241.708,2.031,3.012,3.536C2525.449,1311.476,2526.675,1313.624,2526.074,1316.368Z"
                          transform="translate(-2511.628 -1297.805)" fill="#66142e"/>
                </g>
                <g id="Group_1678" data-name="Group 1678" transform="translate(1.752 3.784)" opacity="0.27">
                    <path id="Path_632" data-name="Path 632"
                          d="M2400.4,1200.772l-48.107,26.025a27.312,27.312,0,0,1-1.538-15.689l37.362-20.209A27.4,27.4,0,0,1,2400.4,1200.772Z"
                          transform="translate(-2350.238 -1190.898)" fill="#fce5e5"/>
                </g>
                <g id="Group_1679" data-name="Group 1679" transform="translate(5.825 17.528)" opacity="0.27">
                    <path id="Path_633" data-name="Path 633"
                          d="M2435.429,1314.46l-45.24,26.027a19.535,19.535,0,0,1-5.087-5.819l48.314-26.132C2434.725,1311.3,2435.109,1311.353,2435.429,1314.46Z"
                          transform="translate(-2385.101 -1308.536)" fill="#fce5e5"/>
                </g>
                <g id="Group_1680" data-name="Group 1680" transform="translate(8.618 8.619)">
                    <path id="Path_634" data-name="Path 634"
                          d="M2429.649,1273.57a20.631,20.631,0,1,1,20.158-16.225A20.656,20.656,0,0,1,2429.649,1273.57Zm-.025-38.365a17.74,17.74,0,1,0,3.814.416A17.81,17.81,0,0,0,2429.623,1235.205Z"
                          transform="translate(-2409 -1232.284)" fill="#66142e"/>
                </g>
                <g id="Group_1681" data-name="Group 1681">
                    <path id="Path_635" data-name="Path 635"
                          d="M2364.507,1217.037a29.264,29.264,0,0,1-6.267-.681,28.961,28.961,0,0,1-12.225-5.9,29.318,29.318,0,0,1-6.443-7.37,29.253,29.253,0,0,1-3.783-20.923c.047-.24.087-.445.133-.652a29.257,29.257,0,0,1,52.675-10.34,30.147,30.147,0,0,1,2.365,4.113,29.2,29.2,0,0,1,2.117,18.749A29.308,29.308,0,0,1,2364.507,1217.037Zm-.007-55.019a25.8,25.8,0,0,0-25.153,20.248c-.04.184-.075.364-.112.549a25.593,25.593,0,0,0,1.434,14.714,25.326,25.326,0,0,0,1.888,3.723,25.82,25.82,0,0,0,5.676,6.494,25.829,25.829,0,0,0,16.274,5.787,25.793,25.793,0,0,0,25.15-20.243h0a25.683,25.683,0,0,0-1.861-16.5,26.513,26.513,0,0,0-2.086-3.629,25.787,25.787,0,0,0-21.209-11.142Z"
                          transform="translate(-2335.24 -1158.513)" fill="#66142e"/>
                </g>
            </g>
            <g id="Group_1689" data-name="Group 1689" transform="translate(261.813 143.387)">
                <g id="Group_1685" data-name="Group 1685" transform="translate(1.459 1.459)">
                    <g id="Group_1683" data-name="Group 1683" transform="translate(0.292 0.291)">
                        <path id="Path_636" data-name="Path 636"
                              d="M3097.456,2058.656l-5.1-4.288a2.969,2.969,0,0,1-.467-4.052c.032-.042.07-.088.1-.129l24.606-29.287a2.967,2.967,0,0,1,4.18-.364l5.1,4.289a2.968,2.968,0,0,1,.363,4.181l-24.606,29.288A2.967,2.967,0,0,1,3097.456,2058.656Z"
                              transform="translate(-3091.293 -2019.841)" fill="#f7c714"/>
                    </g>
                    <g id="Group_1684" data-name="Group 1684">
                        <path id="Path_637" data-name="Path 637"
                              d="M3097.157,2057.446a3.249,3.249,0,0,1-2.095-.762l-5.1-4.289a3.263,3.263,0,0,1-.513-4.45c.034-.046.077-.1.115-.143l24.6-29.286a3.263,3.263,0,0,1,4.592-.4l5.1,4.289a3.263,3.263,0,0,1,.4,4.592l-24.606,29.287A3.252,3.252,0,0,1,3097.157,2057.446Zm-1.718-1.209a2.678,2.678,0,0,0,3.769-.328l24.606-29.287a2.679,2.679,0,0,0-.328-3.77l-5.1-4.289a2.679,2.679,0,0,0-3.769.327l-24.606,29.288c-.03.037-.064.077-.091.114a2.677,2.677,0,0,0,.419,3.655Z"
                              transform="translate(-3088.796 -2017.354)" fill="#66142e"/>
                    </g>
                </g>
                <g id="Group_1686" data-name="Group 1686" transform="translate(3.456 18.228)">
                    <rect id="Rectangle_20" data-name="Rectangle 20" width="16.545" height="12.602"
                          transform="matrix(0.643, -0.766, 0.766, 0.643, 0, 12.668)" fill="#f89e1d"/>
                </g>
                <g id="Group_1687" data-name="Group 1687" transform="translate(20.6 4.336)" opacity="0.55">
                    <rect id="Rectangle_21" data-name="Rectangle 21" width="8.037" height="12.602"
                          transform="matrix(0.643, -0.766, 0.766, 0.643, 0, 6.154)" fill="#fce5e5"/>
                </g>
                <g id="Group_1688" data-name="Group 1688" transform="translate(0 0)">
                    <path id="Path_638" data-name="Path 638"
                          d="M3086.122,2047.882a4.684,4.684,0,0,1-3.029-1.107l-5.1-4.288a4.718,4.718,0,0,1-.578-6.65l24.6-29.286a4.726,4.726,0,0,1,6.651-.578l5.1,4.288a4.719,4.719,0,0,1,.578,6.651l-24.6,29.286a4.688,4.688,0,0,1-3.206,1.667C3086.4,2047.875,3086.26,2047.882,3086.122,2047.882Zm19.509-39.51a1.215,1.215,0,0,0-.932.433l-24.6,29.286h0a1.215,1.215,0,0,0,.148,1.713l5.1,4.287a1.223,1.223,0,0,0,.887.281,1.2,1.2,0,0,0,.825-.429l24.6-29.286a1.215,1.215,0,0,0-.148-1.712l-5.1-4.288A1.208,1.208,0,0,0,3105.631,2008.372Zm-26.878,28.592h0Z"
                          transform="translate(-3076.305 -2004.868)" fill="#66142e"/>
                </g>
            </g>
            <g id="Group_1708" data-name="Group 1708" transform="translate(0 120.982)">
                <g id="Group_1692" data-name="Group 1692" transform="translate(1.744 6.256)">
                    <g id="Group_1690" data-name="Group 1690" transform="translate(0.288 0.303)">
                        <path id="Path_639" data-name="Path 639"
                              d="M890.9,1883.585c-9.693-10.542-20.979-16.247-26.554-13.77h0a15.362,15.362,0,0,0-10.545,10.355c-3.266,5.657,1.375,17.189,11.287,27.969,7.589,8.253,16.154,13.542,22.192,14.262h0s9.31,2.568,14.96-10.938C905.491,1906.247,900.758,1894.3,890.9,1883.585Z"
                              transform="translate(-852.766 -1869.24)" fill="#f7c714"/>
                    </g>
                    <g id="Group_1691" data-name="Group 1691">
                        <path id="Path_640" data-name="Path 640"
                              d="M886.889,1920.581a7.978,7.978,0,0,1-1.863-.189c-6.313-.751-14.886-6.251-22.33-14.347-9.992-10.868-14.651-22.491-11.341-28.286a15.805,15.805,0,0,1,10.721-10.514c5.834-2.558,17.123,3.259,26.862,13.85h0c9.842,10.7,14.731,22.841,11.374,28.232C896.171,1919.23,889.964,1920.581,886.889,1920.581Zm-21.706-53.344a7.1,7.1,0,0,0-2.9.552l-.057.018a15.2,15.2,0,0,0-10.329,10.158l-.025.057c-3.214,5.567,1.412,16.927,11.25,27.626,7.242,7.877,15.882,13.438,22.011,14.17.135.032,9.176,2.341,14.657-10.76,3.245-5.217-1.617-17.052-11.287-27.568C880.511,1872.794,871.194,1867.237,865.182,1867.237Z"
                              transform="translate(-850.299 -1866.645)" fill="#66142e"/>
                    </g>
                </g>
                <g id="Group_1693" data-name="Group 1693" transform="translate(18.387 40.994)">
                    <path id="Path_641" data-name="Path 641"
                          d="M1000.743,2163.974l-8,8.987,14.514,10.282s8.028-6.627,8.681-8.249C1015.943,2174.994,1000.322,2167.846,1000.743,2163.974Z"
                          transform="translate(-992.747 -2163.974)" fill="#f89e1d"/>
                </g>
                <g id="Group_1694" data-name="Group 1694" transform="translate(4.807 20.138)" opacity="0.55">
                    <path id="Path_642" data-name="Path 642" d="M884.218,1985.463l-7.7,11.859,6,9.564,7.277-9.145Z"
                          transform="translate(-876.515 -1985.463)" fill="#fce5e5"/>
                </g>
                <g id="Group_1695" data-name="Group 1695" transform="translate(2.03 9.466)" opacity="0.55">
                    <path id="Path_643" data-name="Path 643"
                          d="M861.712,1897.823s-4.631,1.832-5.34,8.115a14.56,14.56,0,0,0,1.508,11.638s-4.792-9.81-5.114-10.615,3.242-11.091,3.242-11.091l3.423-1.751Z"
                          transform="translate(-852.746 -1894.119)" fill="#fff"/>
                </g>
                <g id="Group_1696" data-name="Group 1696" transform="translate(10.953 7.193)" opacity="0.55">
                    <path id="Path_644" data-name="Path 644"
                          d="M945.241,1879.883a32.367,32.367,0,0,0-9.594-2.1,4.15,4.15,0,0,0-4.232,4.288c.105,3.137,1.174,8.551,5.556,16.813l-7.713-13.125s-.8-8.79,1.483-10.934C930.743,1874.824,940.167,1873.246,945.241,1879.883Z"
                          transform="translate(-929.124 -1874.66)" fill="#fff"/>
                </g>
                <g id="Group_1699" data-name="Group 1699" transform="translate(14.102 11.009)">
                    <g id="Group_1697" data-name="Group 1697" transform="translate(0 0)">
                        <ellipse id="Ellipse_4" data-name="Ellipse 4" cx="6.137" cy="17.558" rx="6.137" ry="17.558"
                                 transform="matrix(0.735, -0.679, 0.679, 0.735, 0, 8.329)" fill="#f9dd6a"/>
                    </g>
                    <g id="Group_1698" data-name="Group 1698" transform="translate(3.389 3.214)">
                        <path id="Path_645" data-name="Path 645"
                              d="M1008.061,1962.536c-3.472,0-9.263-3.629-14.672-9.484-6.792-7.353-10.038-15.028-7.389-17.474s10.043,1.4,16.835,8.749,10.038,15.028,7.389,17.474A3.082,3.082,0,0,1,1008.061,1962.536Zm-19.909-27.113a2.505,2.505,0,0,0-1.756.583c-2.327,2.15,1.072,9.775,7.422,16.649s13.683,10.864,16.009,8.716-1.072-9.774-7.422-16.649C997.224,1939.113,991.389,1935.424,988.152,1935.424Z"
                              transform="translate(-985.079 -1934.842)" fill="#66142e"/>
                    </g>
                </g>
                <g id="Group_1700" data-name="Group 1700" transform="translate(16.873 13.604)">
                    <path id="Path_646" data-name="Path 646"
                          d="M1003.392,1958.473c-4.03,0-10.275-4.443-15.123-9.691-6.072-6.572-10.713-15.231-7.356-18.333s11.622,2.211,17.693,8.783,10.713,15.231,7.356,18.333A3.653,3.653,0,0,1,1003.392,1958.473Zm-19.914-27.128a1.925,1.925,0,0,0-1.344.426c-1.819,1.681.8,8.579,7.456,15.791,6.47,7,13.334,10.359,15.152,8.683s-.8-8.58-7.456-15.791C991.921,1934.645,986.282,1931.345,983.478,1931.345Z"
                          transform="translate(-979.787 -1929.541)" fill="#66142e"/>
                </g>
                <g id="Group_1701" data-name="Group 1701" transform="translate(23.682 20.139)">
                    <path id="Path_647" data-name="Path 647"
                          d="M1049.039,1992.113a4.02,4.02,0,0,1,.994,4.411l1.455,1.555-1.447,1.531-1.248-1.349a5.741,5.741,0,0,1-2.689,1.489l-1.428-2.352a5.283,5.283,0,0,0,2.6-1.28,1.477,1.477,0,0,0,.2-2.244c-.573-.613-1.265-.63-2.6-.2-1.884.623-3.654.481-5-1a3.482,3.482,0,0,1-.447-4.54l-1.35-1.46,1.616-1.192,1.239,1.323a5.207,5.207,0,0,1,1.871-.7l1.205,1.992a4.235,4.235,0,0,0-2.062.885c-.8.642-.788,1.39-.318,1.9.578.626,1.294.515,2.763.116A4.2,4.2,0,0,1,1049.039,1992.113Z"
                          transform="translate(-1038.073 -1985.475)" fill="#66142e"/>
                </g>
                <g id="Group_1705" data-name="Group 1705" transform="translate(3.413 0)">
                    <g id="Group_1704" data-name="Group 1704" transform="translate(0)" clip-path="url(#clip-path)">
                        <g id="Group_1702" data-name="Group 1702" transform="translate(1.805 16.595)" opacity="0.27">
                            <path id="Path_648" data-name="Path 648"
                                  d="M926.919,1971.463l-46.886-4.354a23.511,23.511,0,0,1,6.4-11.97l36.412,3.384A23.59,23.59,0,0,1,926.919,1971.463Z"
                                  transform="translate(-880.033 -1955.139)" fill="#fce5e5"/>
                        </g>
                        <g id="Group_1703" data-name="Group 1703" transform="translate(1.325 32.378)" opacity="0.27">
                            <path id="Path_649" data-name="Path 649"
                                  d="M921.642,2099.805l-44.834-2.982a16.816,16.816,0,0,1-.862-6.6l47.085,4.376C922.647,2097.209,922.9,2097.427,921.642,2099.805Z"
                                  transform="translate(-875.922 -2090.225)" fill="#fce5e5"/>
                        </g>
                    </g>
                </g>
                <g id="Group_1706" data-name="Group 1706" transform="translate(8.848 5.129)">
                    <path id="Path_650" data-name="Path 650"
                          d="M948.447,1904.706a19.717,19.717,0,0,1-8.008-2.061c-5.459-2.505-11.363-7.036-16.626-12.76-11.333-12.326-15.886-25.957-10.366-31.033s18.723.6,30.056,12.929c5.262,5.723,9.284,11.986,11.322,17.636,2.188,6.061,1.848,10.818-.956,13.4A7.752,7.752,0,0,1,948.447,1904.706Zm-29.624-44.785a4.887,4.887,0,0,0-3.395,1.086c-3.637,3.344-.2,15.214,10.539,26.9,5.005,5.444,10.578,9.734,15.692,12.08,4.648,2.132,8.376,2.378,10.228.675s1.92-5.439.184-10.249c-1.91-5.292-5.719-11.2-10.724-16.649h0C932.936,1864.615,924.035,1859.921,918.823,1859.921Z"
                          transform="translate(-911.106 -1856.998)" fill="#66142e"/>
                </g>
                <g id="Group_1707" data-name="Group 1707" transform="translate(0 4.517)">
                    <path id="Path_651" data-name="Path 651"
                          d="M873.654,1909.165a10.7,10.7,0,0,1-2.058-.185c-6.744-.842-15.691-6.542-23.375-14.9-6.065-6.6-10.091-12.9-11.966-18.727a18.042,18.042,0,0,1,10.573-22.424c.7-.266,1.221-.423,1.489-.5,6.629-2.765,18.4,3.094,28.726,14.325,10.44,11.354,15.312,24,11.663,30.193C884.175,1907.652,877.219,1909.165,873.654,1909.165Zm-1.208-4.181c.366.093,7.734,1.753,12.547-9.751a2.08,2.08,0,0,1,.151-.292c2.38-3.822-1.191-14.625-11.111-25.414-9.7-10.546-20.119-15.1-24.219-13.286a2.031,2.031,0,0,1-.353.12h0a11.246,11.246,0,0,0-1.168.387,13.952,13.952,0,0,0-8.145,17.354c1.693,5.262,5.422,11.053,11.083,17.211,6.976,7.587,15.191,12.931,20.929,13.616A2.088,2.088,0,0,1,872.447,1904.984Z"
                          transform="translate(-835.37 -1851.756)" fill="#66142e"/>
                </g>
            </g>
        </g>
    </g>
</svg>
