<svg xmlns="http://www.w3.org/2000/svg" width="46.189" height="55.57" viewBox="0 0 46.189 55.57">
  <g id="logo" transform="translate(-263.811 -79.887)">
    <path id="Path_1" data-name="Path 1" d="M331.221,109.765h-5.545a28.091,28.091,0,0,0-3.235.031c-.809.094-.919-.465-1.087-.905a48.664,48.664,0,0,0-2.607-5.349,66.3,66.3,0,0,0-4.157-6.66c-.61-.881-1.217-1.764-1.845-2.633-.237-.329-.454-.5-.813-.02a87.978,87.978,0,0,0-5.778,8.728,43.15,43.15,0,0,0-3.054,6.269.725.725,0,0,1-.8.551c-2.756-.023-5.513-.018-8.269-.005-.534,0-.62-.088-.45-.658a53.413,53.413,0,0,1,2.28-6.041,40.96,40.96,0,0,1,2.215-4.3,94.1,94.1,0,0,1,5.178-8.006c1.642-2.25,3.334-4.456,5.121-6.6,1.116-1.338,2.308-2.609,3.4-3.962.343-.423.6-.427.978-.011q3.045,3.345,5.826,6.911c2.071,2.655,4.039,5.378,5.836,8.223a56.046,56.046,0,0,1,6.556,13.6C331.053,109.165,331.118,109.405,331.221,109.765Z" transform="translate(-25.627)" fill="#00476d"/>
    <path id="Path_2" data-name="Path 2" d="M331.656,392.136a25.8,25.8,0,0,1-2.331,4.3,19.775,19.775,0,0,1-13.286,8.054,20.413,20.413,0,0,1-4.912.214,18.709,18.709,0,0,1-4.914-1.041,22.836,22.836,0,0,1-4.852-2.377,19.186,19.186,0,0,1-7.034-8.636,3.437,3.437,0,0,0-.16-.516c.079-.219.269-.135.412-.135q4.821-.008,9.642,0a.811.811,0,0,1,.27.041,10.5,10.5,0,0,0,6.052,3.457,11.586,11.586,0,0,0,9.122-1.963,16.128,16.128,0,0,0,1.666-1.494c1.49-.093,2.981-.026,4.472-.037,1.745-.013,3.49-.008,5.234,0C331.243,392.006,331.5,391.871,331.656,392.136Z" transform="translate(-26.196 -269.311)" fill="#0cb5e4"/>
    <path id="Path_3" data-name="Path 3" d="M413.9,320.519a.9.9,0,0,1-.154.078c-1.9.107-2.024.03-2.936-1.837a6.207,6.207,0,0,0-.314-.593.623.623,0,0,0-.765-.28c-.323.1-.154.387-.163.585-.024.549-.032,1.1,0,1.651.023.406-.14.492-.517.5-1.262.018-1.262.033-1.262-1.246,0-1.9.023-3.808-.015-5.711-.01-.534.149-.666.649-.623a23.252,23.252,0,0,1,2.871.13,2.117,2.117,0,0,1,1.865,1.451,2.16,2.16,0,0,1-.924,2.556c-.357.245-.287.317-.07.625C412.774,318.664,413.307,319.582,413.9,320.519Z" transform="translate(-124.244 -201.191)" fill="#00476d"/>
    <path id="Path_4" data-name="Path 4" d="M556.142,320.678a2.792,2.792,0,0,1-2.8-2.8,45.433,45.433,0,0,1,.043-4.82l1.666,0c.117,1.367.017,2.738.054,4.106a1.583,1.583,0,0,0,.063.741,1.094,1.094,0,0,0,.969,1.225,1.164,1.164,0,0,0,.848.005,1.7,1.7,0,0,0,1.081-1.746q.03-1.894,0-3.789c-.007-.394.055-.557.512-.553,1.267.01,1.288-.015,1.262,1.248-.025,1.212.047,2.422-.069,3.637a3.014,3.014,0,0,1-2.806,2.751A2.257,2.257,0,0,1,556.142,320.678Z" transform="translate(-249.84 -201.201)" fill="#00476d"/>
    <path id="Path_5" data-name="Path 5" d="M498.439,318.839a1.1,1.1,0,0,0-.313.728,1.011,1.011,0,0,1-1.26.907,8.379,8.379,0,0,0-.891-.005c.691-1.783,1.371-3.535,2.048-5.287.176-.456.368-.908.51-1.375.195-.644.492-1.018,1.273-.926.531.063.958.008,1.188.667.662,1.891,1.4,3.755,2.111,5.628.158.416.34.823.511,1.234a.55.55,0,0,1-.114.042c-2.044-.032-1.547.466-2.262-1.615A11.036,11.036,0,0,0,498.439,318.839Z" transform="translate(-200.374 -201.049)" fill="#00476d"/>
    <path id="Path_6" data-name="Path 6" d="M457.794,313.05c1.426,0,2.853.029,4.277-.016.568-.018.566.258.553.663s.064.754-.571.727a11.184,11.184,0,0,0-2.471.05,3.379,3.379,0,0,0,.01,1.583l.014.014a6.773,6.773,0,0,0,1.6.084c.239.025.5-.091.716.088-.05,1.218-.05,1.214-1.266,1.22-.358,0-.717.032-1.075.05a4.129,4.129,0,0,0,0,1.689c.731.017,1.462.053,2.192.046.5-.005.877-.074.878.7,0,.819-.459.663-.914.665q-1.959.011-3.918.015c-.135-.1-.1-.247-.1-.379q0-3.436,0-6.872A.5.5,0,0,1,457.794,313.05Z" transform="translate(-167.35 -201.192)" fill="#0cb5e4"/>
    <path id="Path_7" data-name="Path 7" d="M268.622,314.449c-.862,0-1.724,0-2.586-.018-.3-.006-.475.04-.447.4.037.472.037.947.052,1.421a7.953,7.953,0,0,0,2.036.057c.558-.016.513.309.487.656-.024.32.184.758-.466.745a8.039,8.039,0,0,0-2.035.06,11.9,11.9,0,0,0-.059,2.322c0,.4-.075.561-.525.562-1.257,0-1.257.027-1.257-1.252,0-1.925.015-3.85-.011-5.774-.006-.459.131-.569.572-.56,1.421.028,2.842.011,4.264.012A2.277,2.277,0,0,1,268.622,314.449Z" transform="translate(0 -201.221)" fill="#00476d"/>
    <path id="Path_8" data-name="Path 8" d="M358.607,314.523c.042-1.325.042-1.325,1.408-1.325,1.287,0,2.575.037,3.859-.016.637-.026.879.162.779.791a3.077,3.077,0,0,0,.009.55,3.534,3.534,0,0,1-1.542.083c-.5-.015-.607.165-.6.628.024,1.71.01,3.421.009,5.132a.569.569,0,0,1-.072.394l-1.666,0c-.116-1.776-.016-3.555-.054-5.332a1.4,1.4,0,0,0-.069-.737v0a6.244,6.244,0,0,0-1.414-.075C359.037,314.6,358.8,314.715,358.607,314.523Z" transform="translate(-81.813 -201.318)" fill="#01476d"/>
    <path id="Path_9" data-name="Path 9" d="M334.462,319.362c-.054,1.334-.054,1.333-1.378,1.335-1.047,0-2.094.009-3.14.013-.131-.1-.1-.248-.1-.38q0-3.434,0-6.869a.5.5,0,0,1,.072-.327l1.667,0c.116,1.771.015,3.544.054,5.316.005.243-.079.5.078.729l.015.015a11.082,11.082,0,0,0,2.012.085C333.984,319.3,334.241,319.187,334.462,319.362Z" transform="translate(-56.988 -201.276)" fill="#02486d"/>
    <path id="Path_10" data-name="Path 10" d="M306.76,312.7c.567.036,1.3-.245,1.656.109s.1,1.089.1,1.656c.015,1.744-.01,3.488.016,5.232.007.456-.128.613-.581.573-.387-.034-.779,0-1.17.006-.131-.1-.1-.248-.1-.381q0-3.434,0-6.869A.5.5,0,0,1,306.76,312.7Z" transform="translate(-36.997 -200.846)" fill="#01486d"/>
    <path id="Path_11" data-name="Path 11" d="M304.5,391.731q-4.76,0-9.52.008a1.582,1.582,0,0,0-.812.09c.1-.266.327-.208.523-.208q4.714,0,9.427,0A.474.474,0,0,1,304.5,391.731Z" transform="translate(-26.197 -269.004)" fill="#fcfcfc"/>
    <path id="Path_12" data-name="Path 12" d="M502.86,391.751a1.573,1.573,0,0,0-.812-.091q-4.76-.008-9.521-.008c.171-.168.388-.11.589-.11q4.542,0,9.083,0C502.429,391.545,502.72,391.427,502.86,391.751Z" transform="translate(-197.399 -268.925)" fill="#fcfcfc"/>
    <path id="Path_13" data-name="Path 13" d="M386.7,329.219c.009-1.859.035-3.718.017-5.576,0-.477.117-.649.61-.618.523.033,1.052-.025,1.578-.042-.446.363-.967.143-1.447.153s-.631.157-.623.636c.025,1.58.014,3.16.005,4.74C386.835,328.75,386.932,329.021,386.7,329.219Z" transform="translate(-106.054 -209.777)" fill="#fcfcfc"/>
    <path id="Path_14" data-name="Path 14" d="M306.315,313.156c-.03,2.526-.08,5.051.026,7.576-.207-.108-.169-.305-.169-.483q0-3.33,0-6.66C306.17,313.429,306.159,313.264,306.315,313.156Z" transform="translate(-36.552 -201.298)" fill="#fcfcfc"/>
    <path id="Path_15" data-name="Path 15" d="M329.473,313.156c-.03,2.526-.08,5.051.026,7.576-.207-.108-.169-.305-.169-.483q0-3.33,0-6.66C329.328,313.429,329.317,313.264,329.473,313.156Z" transform="translate(-56.536 -201.298)" fill="#fcfcfc"/>
    <path id="Path_16" data-name="Path 16" d="M457.353,313.155c-.027,2.526-.08,5.052.027,7.578-.207-.108-.17-.3-.17-.483q0-3.331,0-6.662C457.209,313.428,457.2,313.263,457.353,313.155Z" transform="translate(-166.907 -201.297)" fill="#fcfcfc"/>
    <path id="Path_17" data-name="Path 17" d="M277.186,337.733a7.753,7.753,0,0,1,2.033-.061c.579.009.468-.356.466-.681s.13-.679-.458-.677a5.553,5.553,0,0,1-2.064-.1c.684,0,1.37.031,2.051-.01.638-.038.557.373.547.758-.01.365.132.812-.524.779C278.556,337.706,277.87,337.733,277.186,337.733Z" transform="translate(-11.522 -221.185)" fill="#fcfcfc"/>
    <path id="Path_18" data-name="Path 18" d="M342.685,319.176a12.475,12.475,0,0,1-.078-2.433c-.035-1.2-.038-2.408-.054-3.612.2.211.119.475.12.716C342.682,315.624,342.682,317.4,342.685,319.176Z" transform="translate(-67.956 -201.276)" fill="#fcfcfc"/>
    <path id="Path_19" data-name="Path 19" d="M373.552,324.237a31.938,31.938,0,0,1,.072,3.542c.028.842.035,1.684.052,2.526-.2-.212-.119-.477-.12-.719C373.549,327.8,373.552,326.02,373.552,324.237Z" transform="translate(-94.698 -210.86)" fill="#fcfcfc"/>
    <path id="Path_20" data-name="Path 20" d="M552.8,313.157l-.043,4.82a21.332,21.332,0,0,1-.09-3.559C552.658,314,552.509,313.55,552.8,313.157Z" transform="translate(-249.256 -201.298)" fill="#fcfcfc"/>
    <path id="Path_21" data-name="Path 21" d="M566.2,317.979c-.154-1.273-.023-2.551-.067-3.825-.012-.341-.032-.681-.049-1.021.216.236.118.525.12.79C566.206,315.274,566.2,316.627,566.2,317.979Z" transform="translate(-260.87 -201.277)" fill="#fcfcfc"/>
    <path id="Path_22" data-name="Path 22" d="M513.957,355.855a10.778,10.778,0,0,1,2.8,0Z" transform="translate(-215.885 -238.066)" fill="#fcfcfc"/>
    <path id="Path_23" data-name="Path 23" d="M346.358,357.517a10.222,10.222,0,0,0-2.012-.091c-.24-.019-.495.084-.718-.08.7,0,1.406,0,2.109.012C345.952,357.362,346.2,357.274,346.358,357.517Z" transform="translate(-68.885 -239.431)" fill="#fcfcfc"/>
    <path id="Path_24" data-name="Path 24" d="M473.817,335.378c-.759-.232-1.56.085-2.317-.172.566,0,1.132,0,1.7.013C473.412,335.224,473.66,335.136,473.817,335.378Z" transform="translate(-179.243 -220.325)" fill="#fcfcfc"/>
    <path id="Path_25" data-name="Path 25" d="M358.607,322.982c.675.192,1.393-.128,2.059.17C359.984,323.05,359.267,323.363,358.607,322.982Z" transform="translate(-81.812 -209.777)" fill="#fcfcfc"/>
    <path id="Path_26" data-name="Path 26" d="M470.7,347.42a3.617,3.617,0,0,1,0-1.689Q470.7,346.575,470.7,347.42Z" transform="translate(-178.465 -229.408)" fill="#fcfcfc"/>
    <path id="Path_27" data-name="Path 27" d="M470.683,325.133a2.954,2.954,0,0,1-.01-1.583Q470.678,324.342,470.683,325.133Z" transform="translate(-178.44 -210.267)" fill="#fcfcfc"/>
    <path id="Path_28" data-name="Path 28" d="M298.907,314.526a4.818,4.818,0,0,0,.026-1.369A1.35,1.35,0,0,1,298.907,314.526Z" transform="translate(-30.285 -201.298)" fill="#fcfcfc"/>
    <path id="Path_29" data-name="Path 29" d="M574.849,357.438a.786.786,0,0,1-.848-.005Z" transform="translate(-267.706 -239.506)" fill="#fcfcfc"/>
    <path id="Path_30" data-name="Path 30" d="M574.056,368.736l.817,0A.758.758,0,0,1,574.056,368.736Z" transform="translate(-267.754 -249.26)" fill="#fcfcfc"/>
    <path id="Path_31" data-name="Path 31" d="M421.116,324.84c-.381.081-.584-.07-.53-.542.033-.292-.04-.6.019-.886s-.3-.774.352-.832c.886-.079,1.488.214,1.6.81C422.737,324.308,422.222,324.846,421.116,324.84Z" transform="translate(-135.279 -209.419)" fill="#fcfcfd"/>
    <path id="Path_32" data-name="Path 32" d="M517.695,325.409c.33.953.612,1.771.9,2.589.093.267.078.423-.281.4-.521-.026-1.044-.007-1.642-.007Z" transform="translate(-218.226 -211.871)" fill="#fbfbfc"/>
  </g>
</svg>
